# xmcd
#
# Track frame offsets:
#	150
#	14893
#	31504
#	45093
#	58724
#	74200
#	90326
#	105128
#	120074
#	134584
#	148243
#	163262
#	178646
#	192665
#	208007
#
# Disc length: 2979 seconds
#
# Revision: 1
# Processed by: cddbd v1.5.2PL0 Copyright (c) Steve Scherf et al.
# Submitted via: audiograbber 1.83.01
#
DISCID=d20ba10f
DTITLE=They Don't Know - Jason Aldean
DYEAR=2016
DGENRE=Country
TTITLE0=Lights Come On
TTITLE1=A Little More Summertime
TTITLE2=This Plane Don't Go There
TTITLE3=Comin' In Hot
TTITLE4=First Time Again (with Kelsea Ballerini)
TTITLE5=Bad
TTITLE6=They Don't Know
TTITLE7=One We Won't Forget
TTITLE8=Whiskey'd Up
TTITLE9=In Case You Don't Remember
TTITLE10=All Out of Beer
TTITLE11=Any Ol' Barstool
TTITLE12=The Way a Night Should Feel
TTITLE13=Reason to Love L.A.
TTITLE14=When the Lights Go Out
EXTD=
EXTT0=
EXTT1=
EXTT2=
EXTT3=
EXTT4=
EXTT5=
EXTT6=
EXTT7=
EXTT8=
EXTT9=
EXTT10=
EXTT11=
EXTT12=
EXTT13=
EXTT14=
PLAYORDER=
